<?xml version="1.0" encoding="iso-8859-1"?>
<!-- Generator: Adobe Illustrator 22.0.0, SVG Export Plug-In . SVG Version: 6.00 Build 0)  -->
<svg xmlns="http://www.w3.org/2000/svg" xmlns:xlink="http://www.w3.org/1999/xlink" fill="currentColor" version="1.1" x="0px" y="0px" viewBox="0 0 60 60" style="enable-background:new 0 0 60 60;" xml:space="preserve" width="512" height="512">
<g id="_x33_5-Dress_Shop">
	<path d="M59,17H1c-0.552,0-1-0.447-1-1c0-2.847,1.108-5.523,3.121-7.535C4.333,7.253,5,5.643,5,3.929V2.896C5,1.3,6.299,0,7.896,0   h44.208C53.701,0,55,1.3,55,2.896v1.032c0,1.714,0.667,3.324,1.879,4.536C58.892,10.477,60,13.153,60,16C60,16.553,59.552,17,59,17   z M2.057,15h55.887c-0.221-1.935-1.082-3.725-2.479-5.121C53.875,8.289,53,6.176,53,3.929V2.896C53,2.402,52.598,2,52.104,2H7.896   C7.402,2,7,2.402,7,2.896v1.032c0,2.247-0.875,4.36-2.464,5.95C3.138,11.275,2.278,13.065,2.057,15z"/>
	<path d="M11,17c-0.552,0-1-0.447-1-1v-1.085c0-2.088,0.568-4.139,1.643-5.93C12.531,7.505,13,5.811,13,4.085V1c0-0.553,0.448-1,1-1   s1,0.447,1,1v3.085c0,2.088-0.568,4.139-1.643,5.93c-0.888,1.48-1.357,3.175-1.357,4.9V16C12,16.553,11.552,17,11,17z"/>
	<path d="M21,17c-0.552,0-1-0.447-1-1v-1.45c0-1.757,0.175-3.522,0.52-5.246C20.838,7.709,21,6.076,21,4.45V1c0-0.553,0.448-1,1-1   s1,0.447,1,1v3.45c0,1.757-0.175,3.522-0.52,5.246C22.162,11.291,22,12.924,22,14.55V16C22,16.553,21.552,17,21,17z"/>
	<path d="M30,17c-0.552,0-1-0.447-1-1V1c0-0.553,0.448-1,1-1s1,0.447,1,1v15C31,16.553,30.552,17,30,17z"/>
	<path d="M39,17c-0.552,0-1-0.447-1-1v-1.45c0-1.626-0.162-3.259-0.48-4.854C37.175,7.973,37,6.207,37,4.45V1c0-0.553,0.448-1,1-1   s1,0.447,1,1v3.45c0,1.626,0.162,3.259,0.48,4.854C39.825,11.027,40,12.793,40,14.55V16C40,16.553,39.552,17,39,17z"/>
	<path d="M49,17c-0.552,0-1-0.447-1-1v-1.085c0-1.726-0.469-3.42-1.357-4.9C45.568,8.224,45,6.173,45,4.085V1c0-0.553,0.448-1,1-1   s1,0.447,1,1v3.085c0,1.726,0.469,3.42,1.357,4.9C49.432,10.776,50,12.827,50,14.915V16C50,16.553,49.552,17,49,17z"/>
	<path d="M6.5,23h-1C2.467,23,0,20.532,0,17.5V16c0-0.553,0.448-1,1-1h10c0.552,0,1,0.447,1,1v1.5C12,20.532,9.533,23,6.5,23z M2,17   v0.5C2,19.43,3.57,21,5.5,21h1c1.93,0,3.5-1.57,3.5-3.5V17H2z"/>
	<path d="M16.5,23h-1c-3.033,0-5.5-2.468-5.5-5.5V16c0-0.553,0.448-1,1-1h10c0.552,0,1,0.447,1,1v1.5C22,20.532,19.533,23,16.5,23z    M12,17v0.5c0,1.93,1.57,3.5,3.5,3.5h1c1.93,0,3.5-1.57,3.5-3.5V17H12z"/>
	<path d="M44.5,23h-1c-3.033,0-5.5-2.468-5.5-5.5V16c0-0.553,0.448-1,1-1h10c0.552,0,1,0.447,1,1v1.5C50,20.532,47.533,23,44.5,23z    M40,17v0.5c0,1.93,1.57,3.5,3.5,3.5h1c1.93,0,3.5-1.57,3.5-3.5V17H40z"/>
	<path d="M54.5,23h-1c-3.033,0-5.5-2.468-5.5-5.5V16c0-0.553,0.448-1,1-1h10c0.552,0,1,0.447,1,1v1.5C60,20.532,57.533,23,54.5,23z    M50,17v0.5c0,1.93,1.57,3.5,3.5,3.5h1c1.93,0,3.5-1.57,3.5-3.5V17H50z"/>
	<path d="M25.5,23c-3.033,0-5.5-2.468-5.5-5.5V16c0-0.553,0.448-1,1-1h9c0.552,0,1,0.447,1,1v1.5C31,20.532,28.533,23,25.5,23z    M22,17v0.5c0,1.93,1.57,3.5,3.5,3.5s3.5-1.57,3.5-3.5V17H22z"/>
	<path d="M34.5,23c-3.033,0-5.5-2.468-5.5-5.5V16c0-0.553,0.448-1,1-1h9c0.552,0,1,0.447,1,1v1.5C40,20.532,37.533,23,34.5,23z    M31,17v0.5c0,1.93,1.57,3.5,3.5,3.5s3.5-1.57,3.5-3.5V17H31z"/>
	<path d="M56,60H4c-0.552,0-1-0.447-1-1V21.725c0-0.325,0.158-0.629,0.423-0.816c0.266-0.188,0.605-0.235,0.911-0.126   C4.748,20.929,5.129,21,5.5,21h1c1.467,0,2.786-0.938,3.282-2.335C9.924,18.267,10.301,18,10.724,18h0.551   c0.423,0,0.801,0.267,0.942,0.665C12.714,20.062,14.033,21,15.5,21h1c1.467,0,2.786-0.938,3.282-2.335   C19.924,18.267,20.301,18,20.724,18h0.551c0.423,0,0.801,0.267,0.942,0.665C22.714,20.062,24.033,21,25.5,21   s2.786-0.938,3.282-2.335C28.924,18.267,29.301,18,29.724,18h0.551c0.423,0,0.801,0.267,0.942,0.665   C31.714,20.062,33.033,21,34.5,21s2.786-0.938,3.282-2.335C37.924,18.267,38.301,18,38.724,18h0.551   c0.423,0,0.801,0.267,0.942,0.665C40.714,20.062,42.033,21,43.5,21h1c1.467,0,2.786-0.938,3.282-2.335   C47.924,18.267,48.301,18,48.724,18h0.551c0.423,0,0.801,0.267,0.942,0.665C50.714,20.062,52.033,21,53.5,21h1   c0.371,0,0.752-0.071,1.166-0.218c0.306-0.11,0.646-0.062,0.911,0.126C56.842,21.096,57,21.399,57,21.725V59   C57,59.553,56.552,60,56,60z M5,58h50V22.975C54.833,22.991,54.667,23,54.5,23h-1c-1.817,0-3.49-0.911-4.5-2.366   C47.99,22.089,46.317,23,44.5,23h-1c-1.817,0-3.49-0.911-4.5-2.366C37.99,22.089,36.317,23,34.5,23s-3.49-0.911-4.5-2.366   C28.99,22.089,27.317,23,25.5,23s-3.49-0.911-4.5-2.366C19.99,22.089,18.317,23,16.5,23h-1c-1.817,0-3.49-0.911-4.5-2.366   C9.99,22.089,8.317,23,6.5,23h-1c-0.167,0-0.333-0.009-0.5-0.025V58z"/>
	<path d="M24,60H8c-0.552,0-1-0.447-1-1V27c0-0.553,0.448-1,1-1h16c0.552,0,1,0.447,1,1v32C25,59.553,24.552,60,24,60z M9,58h14V28   H9V58z"/>
	<path d="M10,35H8c-0.552,0-1-0.447-1-1s0.448-1,1-1h2c0.552,0,1,0.447,1,1S10.552,35,10,35z"/>
	<path d="M10,53H8c-0.552,0-1-0.447-1-1s0.448-1,1-1h2c0.552,0,1,0.447,1,1S10.552,53,10,53z"/>
	<path d="M52,56H28c-0.552,0-1-0.447-1-1V26c0-0.553,0.448-1,1-1h24c0.552,0,1,0.447,1,1v29C53,55.553,52.552,56,52,56z M29,54h22   V27H29V54z"/>
	<path d="M20,46c-0.552,0-1-0.447-1-1v-2h-2c-0.552,0-1-0.447-1-1s0.448-1,1-1h3c0.552,0,1,0.447,1,1v3C21,45.553,20.552,46,20,46z"/>
	<path d="M59,60H1c-0.552,0-1-0.447-1-1s0.448-1,1-1h58c0.552,0,1,0.447,1,1S59.552,60,59,60z"/>
	<path d="M40,52c-2.771,0-4.669-0.571-5.8-1.747c-1.294-1.346-1.226-3.122-1.181-4.298l0.013-0.405   c0.028-1.303,0.507-2.544,1.386-3.59c1.528-1.819,2.027-3.524,1.442-4.93c-0.739-1.777-0.803-3.554-0.186-5.138   c0.652-1.672,1.559-2.536,1.66-2.629c0.292-0.268,0.716-0.338,1.079-0.18c0.363,0.16,0.598,0.52,0.598,0.916   c0,1.861,0.57,2.835,0.99,3.299c0.414-0.46,0.986-1.434,0.986-3.299c0-0.396,0.235-0.756,0.598-0.916   c0.363-0.159,0.786-0.089,1.079,0.18c0.101,0.093,1.008,0.957,1.66,2.629c0.618,1.584,0.554,3.36-0.186,5.138   c-0.584,1.405-0.085,3.11,1.443,4.93c0.878,1.046,1.358,2.287,1.385,3.59l0.013,0.405c0.045,1.176,0.114,2.952-1.181,4.298   C44.669,51.429,42.771,52,40,52z M37.464,32.827c-0.43,1.309-0.112,2.58,0.244,3.436c0.621,1.492,0.819,3.915-1.758,6.984   c-0.583,0.692-0.9,1.504-0.917,2.346l-0.014,0.439c-0.04,1.033-0.081,2.102,0.623,2.834C36.365,49.618,37.832,50,40,50   s3.635-0.382,4.359-1.134c0.704-0.732,0.663-1.801,0.623-2.834l-0.014-0.439c-0.018-0.842-0.335-1.653-0.917-2.346   c-2.577-3.069-2.379-5.492-1.758-6.984c0.355-0.855,0.674-2.127,0.244-3.436c-0.717,1.978-2.042,2.612-2.118,2.647   c-0.265,0.121-0.57,0.121-0.835,0C39.506,35.439,38.181,34.805,37.464,32.827z"/>
	<path d="M40,56c-0.552,0-1-0.447-1-1v-4c0-0.553,0.448-1,1-1s1,0.447,1,1v4C41,55.553,40.552,56,40,56z"/>
</g>
</svg>
